<?xml version="1.0" encoding="UTF-8" standalone="no"?>
<svg
   xmlns:dc="http://purl.org/dc/elements/1.1/"
   xmlns:cc="http://creativecommons.org/ns#"
   xmlns:rdf="http://www.w3.org/1999/02/22-rdf-syntax-ns#"
   xmlns:svg="http://www.w3.org/2000/svg"
   xmlns="http://www.w3.org/2000/svg"
   viewBox="0 0 1122.52 793.70135"
   height="793.70135"
   width="1122.52"
   xml:space="preserve"
   id="svg2"
   version="1.1"><metadata
     id="metadata8"><rdf:RDF><cc:Work
         rdf:about=""><dc:format>image/svg+xml</dc:format><dc:type
           rdf:resource="http://purl.org/dc/dcmitype/StillImage" /></cc:Work></rdf:RDF></metadata><defs
     id="defs6"><clipPath
       id="clipPath18"
       clipPathUnits="userSpaceOnUse"><path
         id="path16"
         d="M 0,595.276 H 841.89 V 0 H 0 Z" /></clipPath><clipPath
       id="clipPath66"
       clipPathUnits="userSpaceOnUse"><path
         id="path64"
         d="M 0,595.276 H 841.89 V 0 H 0 Z" /></clipPath></defs><g
     transform="matrix(1.3333333,0,0,-1.3333333,0,793.70133)"
     id="g10"><g
       id="g12"><g
         clip-path="url(#clipPath18)"
         id="g14"><g
           transform="translate(150.5894,293.3418)"
           id="g20"><path
             id="path22"
             style="fill:#0074a3;fill-opacity:1;fill-rule:nonzero;stroke:none"
             d="m 0,0 c -8.564,-21.015 -29.598,-34.367 -52.168,-33.149 -22.284,1.203 -41.581,16.366 -48.073,37.807 2.137,0.621 4.274,1.242 6.411,1.863 -5.676,5.495 -11.352,10.989 -17.028,16.484 -1.63,-7.668 -3.26,-15.337 -4.89,-23.005 2.37,0.71 4.74,1.419 7.109,2.128 7.652,-21.927 25.517,-38.403 47.051,-42.522 C -33.544,-45.759 -3.5,-29.359 9.091,0 Z" /></g><g
           transform="translate(150.5894,293.3418)"
           id="g24"><path
             id="path26"
             style="fill:none;stroke:#007aae;stroke-width:0.5;stroke-linecap:butt;stroke-linejoin:miter;stroke-miterlimit:10;stroke-dasharray:none;stroke-opacity:1"
             d="m 0,0 c -8.564,-21.015 -29.598,-34.367 -52.168,-33.149 -22.284,1.203 -41.581,16.366 -48.073,37.807 2.137,0.621 4.274,1.242 6.411,1.863 -5.676,5.495 -11.352,10.989 -17.028,16.484 -1.63,-7.668 -3.26,-15.337 -4.89,-23.005 2.37,0.71 4.74,1.419 7.109,2.128 7.652,-21.927 25.517,-38.403 47.051,-42.522 C -33.544,-45.759 -3.5,-29.359 9.091,0 Z" /></g><g
           transform="translate(139.3587,328.7451)"
           id="g28"><path
             id="path30"
             style="fill:#007aae;fill-opacity:1;fill-rule:nonzero;stroke:none"
             d="m 0,0 h -21.601 v -58.961 c 3.902,1.631 9.551,4.591 14.944,9.917 2.928,2.892 5.085,5.796 6.657,8.288 z" /></g><g
           transform="translate(139.3587,328.7451)"
           id="g32"><path
             id="path34"
             style="fill:none;stroke:#007aae;stroke-width:0.5;stroke-linecap:butt;stroke-linejoin:miter;stroke-miterlimit:10;stroke-dasharray:none;stroke-opacity:1"
             d="m 0,0 h -21.601 v -58.961 c 3.902,1.631 9.551,4.591 14.944,9.917 2.928,2.892 5.085,5.796 6.657,8.288 z" /></g><g
           transform="translate(62.1932,328.7451)"
           id="g36"><path
             id="path38"
             style="fill:#007aae;fill-opacity:1;fill-rule:nonzero;stroke:none"
             d="M 0,0 H 21.601 V -58.961 C 17.699,-57.33 12.05,-54.37 6.657,-49.044 3.729,-46.152 1.572,-43.248 0,-40.756 Z" /></g><g
           transform="translate(62.1932,328.7451)"
           id="g40"><path
             id="path42"
             style="fill:none;stroke:#007aae;stroke-width:0.5;stroke-linecap:butt;stroke-linejoin:miter;stroke-miterlimit:10;stroke-dasharray:none;stroke-opacity:1"
             d="M 0,0 H 21.601 V -58.961 C 17.699,-57.33 12.05,-54.37 6.657,-49.044 3.729,-46.152 1.572,-43.248 0,-40.756 Z" /></g><g
           transform="translate(111.3727,352.1121)"
           id="g44"><path
             id="path46"
             style="fill:#007aae;fill-opacity:1;fill-rule:nonzero;stroke:none"
             d="m 0,0 h -21.601 c -0.106,-28.182 -0.211,-56.365 -0.317,-84.547 2.428,-0.866 6.226,-1.898 10.959,-1.902 5.026,-0.004 9.025,1.154 11.502,2.083 C 0.362,-56.244 0.181,-28.122 0,0" /></g><g
           transform="translate(111.3727,352.1121)"
           id="g48"><path
             id="path50"
             style="fill:none;stroke:#007aae;stroke-width:0.5;stroke-linecap:butt;stroke-linejoin:miter;stroke-miterlimit:10;stroke-dasharray:none;stroke-opacity:1"
             d="m 0,0 h -21.601 c -0.106,-28.182 -0.211,-56.365 -0.317,-84.547 2.428,-0.866 6.226,-1.898 10.959,-1.902 5.026,-0.004 9.025,1.154 11.502,2.083 C 0.362,-56.244 0.181,-28.122 0,0 Z" /></g><g
           transform="translate(51.1437,331.4169)"
           id="g52"><path
             id="path54"
             style="fill:#0074a3;fill-opacity:1;fill-rule:nonzero;stroke:none"
             d="M 0,0 C 8.564,21.015 29.598,34.367 52.168,33.149 74.452,31.946 93.749,16.783 100.241,-4.658 98.104,-5.279 95.967,-5.9 93.83,-6.521 c 5.676,-5.495 11.352,-10.989 17.028,-16.484 1.63,7.669 3.26,15.337 4.89,23.005 -2.37,-0.709 -4.74,-1.419 -7.109,-2.128 C 100.987,19.799 83.122,36.275 61.588,40.394 33.544,45.759 3.5,29.359 -9.091,0 Z" /></g><g
           transform="translate(51.1437,331.4169)"
           id="g56"><path
             id="path58"
             style="fill:none;stroke:#007aae;stroke-width:0.5;stroke-linecap:butt;stroke-linejoin:miter;stroke-miterlimit:10;stroke-dasharray:none;stroke-opacity:1"
             d="M 0,0 C 8.564,21.015 29.598,34.367 52.168,33.149 74.452,31.946 93.749,16.783 100.241,-4.658 98.104,-5.279 95.967,-5.9 93.83,-6.521 c 5.676,-5.495 11.352,-10.989 17.028,-16.484 1.63,7.669 3.26,15.337 4.89,23.005 -2.37,-0.709 -4.74,-1.419 -7.109,-2.128 C 100.987,19.799 83.122,36.275 61.588,40.394 33.544,45.759 3.5,29.359 -9.091,0 Z" /></g></g></g><g
       id="g60"><g
         clip-path="url(#clipPath66)"
         id="g62"><g
           transform="translate(773.5563,327.1148)"
           id="g68"><path
             id="path70"
             style="fill:#383332;fill-opacity:1;fill-rule:nonzero;stroke:none"
             d="m 0,0 c 2.083,3.442 4.166,6.883 6.249,10.325 -2.104,1.121 -7.75,3.77 -15.215,2.989 -2.495,-0.261 -9.438,-1.35 -15.352,-7.065 -7.167,-6.925 -7.744,-15.736 -7.88,-18.476 -0.154,-3.109 -0.598,-12.279 6.188,-19.348 7.117,-7.415 17.08,-6.966 19.482,-6.857 8.434,0.381 14.287,4.53 16.445,6.234 -1.901,3.034 -3.803,6.069 -5.705,9.103 -5.887,-4.076 -13.127,-4.177 -17.662,-0.544 -4.633,3.713 -4.621,9.865 -4.619,11.276 0.002,1.107 0.019,9.854 6.718,13.037 C -6.123,3.158 -0.739,0.394 0,0" /></g><g
           transform="translate(773.5563,327.1148)"
           id="g72"><path
             id="path74"
             style="fill:none;stroke:#383332;stroke-width:0.5;stroke-linecap:butt;stroke-linejoin:miter;stroke-miterlimit:10;stroke-dasharray:none;stroke-opacity:1"
             d="m 0,0 c 2.083,3.442 4.166,6.883 6.249,10.325 -2.104,1.121 -7.75,3.77 -15.215,2.989 -2.495,-0.261 -9.438,-1.35 -15.352,-7.065 -7.167,-6.925 -7.744,-15.736 -7.88,-18.476 -0.154,-3.109 -0.598,-12.279 6.188,-19.348 7.117,-7.415 17.08,-6.966 19.482,-6.857 8.434,0.381 14.287,4.53 16.445,6.234 -1.901,3.034 -3.803,6.069 -5.705,9.103 -5.887,-4.076 -13.127,-4.177 -17.662,-0.544 -4.633,3.713 -4.621,9.865 -4.619,11.276 0.002,1.107 0.019,9.854 6.718,13.037 C -6.123,3.158 -0.739,0.394 0,0 Z" /></g><g
           transform="translate(677.9777,329.0857)"
           id="g76"><path
             id="path78"
             style="fill:#383332;fill-opacity:1;fill-rule:nonzero;stroke:none"
             d="M 0,0 C 2.242,4.098 4.483,8.197 6.725,12.295 H 19.427 V 4.551 c 1.225,1.614 3.92,4.696 8.423,6.521 1.23,0.499 9.428,3.66 17.05,-1.087 5.371,-3.344 7.233,-8.607 7.744,-10.257 V -40.009 H 37.632 v 32.605 c -1.278,4.325 -5.423,6.954 -9.374,6.317 -3.155,-0.508 -5.796,-3.035 -6.657,-6.385 V -40.009 H 6.725 L 6.725,0 Z" /></g><g
           transform="translate(677.9777,329.0857)"
           id="g80"><path
             id="path82"
             style="fill:none;stroke:#383332;stroke-width:0.5;stroke-linecap:butt;stroke-linejoin:miter;stroke-miterlimit:10;stroke-dasharray:none;stroke-opacity:1"
             d="M 0,0 C 2.242,4.098 4.483,8.197 6.725,12.295 H 19.427 V 4.551 c 1.225,1.614 3.92,4.696 8.423,6.521 1.23,0.499 9.428,3.66 17.05,-1.087 5.371,-3.344 7.233,-8.607 7.744,-10.257 V -40.009 H 37.632 v 32.605 c -1.278,4.325 -5.423,6.954 -9.374,6.317 -3.155,-0.508 -5.796,-3.035 -6.657,-6.385 V -40.009 H 6.725 L 6.725,0 Z" /></g><g
           transform="translate(624.9944,342.1041)"
           id="g84"><path
             id="path86"
             style="fill:#383332;fill-opacity:1;fill-rule:nonzero;stroke:none"
             d="m 0,0 h 16.484 c 3.713,-12.589 7.426,-25.178 11.14,-37.768 3.14,12.59 6.279,25.179 9.419,37.768 h 15.94 c -7.319,-33.835 -15.125,-58.88 -20.522,-67.911 -1.419,-2.374 -4.175,-6.984 -9.372,-8.728 -4.517,-1.517 -9.421,-0.377 -11.224,0.04 -2.945,0.681 -5.249,1.753 -6.793,2.603 1.811,3.351 3.623,6.703 5.434,10.054 1.577,-0.962 2.868,-1.116 3.724,-1.087 4.181,0.139 8.291,4.973 9.771,12.136 H 15.487 C 10.325,-35.262 5.163,-17.631 0,0" /></g><g
           transform="translate(624.9944,342.1041)"
           id="g88"><path
             id="path90"
             style="fill:none;stroke:#383332;stroke-width:0.5;stroke-linecap:butt;stroke-linejoin:miter;stroke-miterlimit:10;stroke-dasharray:none;stroke-opacity:1"
             d="m 0,0 h 16.484 c 3.713,-12.589 7.426,-25.178 11.14,-37.768 3.14,12.59 6.279,25.179 9.419,37.768 h 15.94 c -7.319,-33.835 -15.125,-58.88 -20.522,-67.911 -1.419,-2.374 -4.175,-6.984 -9.372,-8.728 -4.517,-1.517 -9.421,-0.377 -11.224,0.04 -2.945,0.681 -5.249,1.753 -6.793,2.603 1.811,3.351 3.623,6.703 5.434,10.054 1.577,-0.962 2.868,-1.116 3.724,-1.087 4.181,0.139 8.291,4.973 9.771,12.136 H 15.487 C 10.325,-35.262 5.163,-17.631 0,0 Z" /></g><g
           transform="translate(573.2791,291.385)"
           id="g92"><path
             id="path94"
             style="fill:#383332;fill-opacity:1;fill-rule:nonzero;stroke:none"
             d="m 0,0 c 0.936,4.891 1.872,9.782 2.808,14.672 12.893,-4.166 23.665,-4.004 26.808,0.952 0.97,1.53 1.726,4.325 0.725,6.656 -1.286,2.991 -4.769,3.594 -9.057,5.163 C 16.587,29.161 7.443,32.506 3.457,39.53 0.203,45.263 1.479,51.522 1.902,53.255 c 0,0 1.555,6.366 7.427,11.321 8.394,7.083 22.969,7.112 37.224,0.725 C 44.47,61.587 42.387,57.874 40.304,54.161 30.129,57.742 21.581,57.272 19.156,53.29 18.243,51.791 17.979,49.434 18.757,47.489 20.003,44.37 23.51,43.352 27.069,41.986 33.828,39.392 41.245,36.545 45.104,31.247 49.423,25.316 48.21,17.791 47.911,15.94 47.59,13.948 46.214,7.07 40.304,2.174 34.938,-2.271 28.947,-2.505 21.193,-2.808 16.302,-2.999 8.854,-2.709 0,0" /></g><g
           transform="translate(573.2791,291.385)"
           id="g96"><path
             id="path98"
             style="fill:none;stroke:#383332;stroke-width:0.5;stroke-linecap:butt;stroke-linejoin:miter;stroke-miterlimit:10;stroke-dasharray:none;stroke-opacity:1"
             d="m 0,0 c 0.936,4.891 1.872,9.782 2.808,14.672 12.893,-4.166 23.665,-4.004 26.808,0.952 0.97,1.53 1.726,4.325 0.725,6.656 -1.286,2.991 -4.769,3.594 -9.057,5.163 C 16.587,29.161 7.443,32.506 3.457,39.53 0.203,45.263 1.479,51.522 1.902,53.255 c 0,0 1.555,6.366 7.427,11.321 8.394,7.083 22.969,7.112 37.224,0.725 C 44.47,61.587 42.387,57.874 40.304,54.161 30.129,57.742 21.581,57.272 19.156,53.29 18.243,51.791 17.979,49.434 18.757,47.489 20.003,44.37 23.51,43.352 27.069,41.986 33.828,39.392 41.245,36.545 45.104,31.247 49.423,25.316 48.21,17.791 47.911,15.94 47.59,13.948 46.214,7.07 40.304,2.174 34.938,-2.271 28.947,-2.505 21.193,-2.808 16.302,-2.999 8.854,-2.709 0,0 Z" /></g><g
           transform="translate(422.7519,341.3795)"
           id="g100"><path
             id="path102"
             style="fill:#383332;fill-opacity:1;fill-rule:nonzero;stroke:none"
             d="m 0,0 h 14.808 c 0.044,-14.491 0.11,-25.115 0.091,-28.303 -0.002,-0.369 -0.013,-1.883 0.407,-3.804 0.25,-1.139 0.599,-2.669 1.676,-4.302 0.596,-0.904 1.339,-2.032 2.802,-2.734 1.029,-0.494 1.995,-0.577 2.598,-0.578 2.412,0.017 4.823,0.034 7.234,0.051 V 0 H 44.56 v -49.723 c -3.441,-0.77 -6.883,-1.54 -10.325,-2.309 H 16.438 c -2.63,0.456 -7.676,1.748 -11.411,5.977 -3.288,3.723 -4.429,7.951 -4.484,11.412 C 0.362,-23.095 0.181,-11.548 0,0" /></g><g
           transform="translate(422.7519,341.3795)"
           id="g104"><path
             id="path106"
             style="fill:none;stroke:#383332;stroke-width:0.5;stroke-linecap:butt;stroke-linejoin:miter;stroke-miterlimit:10;stroke-dasharray:none;stroke-opacity:1"
             d="m 0,0 h 14.808 c 0.044,-14.491 0.11,-25.115 0.091,-28.303 -0.002,-0.369 -0.013,-1.883 0.407,-3.804 0.25,-1.139 0.599,-2.669 1.676,-4.302 0.596,-0.904 1.339,-2.032 2.802,-2.734 1.029,-0.494 1.995,-0.577 2.598,-0.578 2.412,0.017 4.823,0.034 7.234,0.051 V 0 H 44.56 v -49.723 c -3.441,-0.77 -6.883,-1.54 -10.325,-2.309 H 16.438 c -2.63,0.456 -7.676,1.748 -11.411,5.977 -3.288,3.723 -4.429,7.951 -4.484,11.412 C 0.362,-23.095 0.181,-11.548 0,0 Z" /></g><g
           transform="translate(539.9946,328.813)"
           id="g108"><path
             id="path110"
             style="fill:#383332;fill-opacity:1;fill-rule:nonzero;stroke:none"
             d="M 0,0 H -6.249 V 12.836 H 0 V 26.628 H 14.536 V 12.836 H 27.918 C 25.654,8.558 23.39,4.279 21.125,0 h -6.589 v -21.329 c 0.039,-0.551 0.34,-4.062 3.261,-6.182 2.823,-2.049 6.932,-1.955 10.121,0.34 V -40.055 H 14.536 c -2.563,0 -4.828,0.484 -6.842,1.485 -0.556,0.276 -2.361,1.223 -3.998,2.997 -3.854,4.177 -3.759,9.674 -3.696,11.051 z" /></g><g
           transform="translate(539.9946,328.813)"
           id="g112"><path
             id="path114"
             style="fill:none;stroke:#383332;stroke-width:0.5;stroke-linecap:butt;stroke-linejoin:miter;stroke-miterlimit:10;stroke-dasharray:none;stroke-opacity:1"
             d="M 0,0 H -6.249 V 12.836 H 0 V 26.628 H 14.536 V 12.836 H 27.918 C 25.654,8.558 23.39,4.279 21.125,0 h -6.589 v -21.329 c 0.039,-0.551 0.34,-4.062 3.261,-6.182 2.823,-2.049 6.932,-1.955 10.121,0.34 V -40.055 H 14.536 c -2.563,0 -4.828,0.484 -6.842,1.485 -0.556,0.276 -2.361,1.223 -3.998,2.997 -3.854,4.177 -3.759,9.674 -3.696,11.051 z" /></g><g
           transform="translate(472.7464,329.0847)"
           id="g116"><path
             id="path118"
             style="fill:#383332;fill-opacity:1;fill-rule:nonzero;stroke:none"
             d="M 0,0 C 2.242,4.098 4.483,8.197 6.725,12.295 H 19.427 V 4.551 c 1.225,1.614 3.92,4.696 8.423,6.521 1.23,0.499 9.428,3.66 17.05,-1.087 5.37,-3.344 7.233,-8.607 7.744,-10.257 V -40.009 H 37.632 v 32.605 c -1.278,4.325 -5.423,6.954 -9.374,6.317 -3.155,-0.508 -5.796,-3.035 -6.657,-6.385 V -40.009 H 6.725 L 6.725,0 Z" /></g><g
           transform="translate(472.7464,329.0847)"
           id="g120"><path
             id="path122"
             style="fill:none;stroke:#383332;stroke-width:0.5;stroke-linecap:butt;stroke-linejoin:miter;stroke-miterlimit:10;stroke-dasharray:none;stroke-opacity:1"
             d="M 0,0 C 2.242,4.098 4.483,8.197 6.725,12.295 H 19.427 V 4.551 c 1.225,1.614 3.92,4.696 8.423,6.521 1.23,0.499 9.428,3.66 17.05,-1.087 5.37,-3.344 7.233,-8.607 7.744,-10.257 V -40.009 H 37.632 v 32.605 c -1.278,4.325 -5.423,6.954 -9.374,6.317 -3.155,-0.508 -5.796,-3.035 -6.657,-6.385 V -40.009 H 6.725 L 6.725,0 Z" /></g><g
           transform="translate(380.501,324.4656)"
           id="g124"><path
             id="path126"
             style="fill:#383332;fill-opacity:1;fill-rule:nonzero;stroke:none"
             d="m 0,0 c -1.486,-2.626 -1.418,-5.432 -1.223,-10.936 0.15,-4.204 0.247,-6.343 1.359,-8.152 2.045,-3.327 5.471,-4.355 5.91,-4.483 0.665,-0.193 2.919,-0.817 5.502,0 3.787,1.199 5.517,4.483 5.909,5.299 0.423,0.878 0.741,1.871 0.612,9.102 -0.122,6.793 -0.437,7.777 -0.883,8.694 C 16.799,0.318 15.218,3.566 11.48,4.823 8.146,5.944 5.281,4.747 4.687,4.483 1.873,3.234 0.546,0.964 0,0 m -14.407,-21.259 c -1.079,3.327 -1.053,6.306 -1.013,11.002 0.037,4.172 0.06,6.916 0.884,9.963 1.26,4.663 4.648,10.96 11.321,14.763 10.378,5.913 21.139,1.257 22.054,0.843 2.239,-1.014 8.562,-4.269 11.711,-11.173 1.983,-4.348 1.956,-8.495 1.919,-14.124 -0.023,-3.595 -0.039,-6.104 -0.871,-9.128 -0.532,-1.938 -2.994,-9.913 -10.812,-14.602 -8.287,-4.969 -19.15,-4.117 -26.628,1.178 -1.905,1.349 -6.556,5.079 -8.565,11.278" /></g><g
           transform="translate(380.501,324.4656)"
           id="g128"><path
             id="path130"
             style="fill:none;stroke:#383332;stroke-width:0.5;stroke-linecap:butt;stroke-linejoin:miter;stroke-miterlimit:10;stroke-dasharray:none;stroke-opacity:1"
             d="m 0,0 c -1.486,-2.626 -1.418,-5.432 -1.223,-10.936 0.15,-4.204 0.247,-6.343 1.359,-8.152 2.045,-3.327 5.471,-4.355 5.91,-4.483 0.665,-0.193 2.919,-0.817 5.502,0 3.787,1.199 5.517,4.483 5.909,5.299 0.423,0.878 0.741,1.871 0.612,9.102 -0.122,6.793 -0.437,7.777 -0.883,8.694 C 16.799,0.318 15.218,3.566 11.48,4.823 8.146,5.944 5.281,4.747 4.687,4.483 1.873,3.234 0.546,0.964 0,0 Z m -14.407,-21.259 c -1.079,3.327 -1.053,6.306 -1.013,11.002 0.037,4.172 0.06,6.916 0.884,9.963 1.26,4.663 4.648,10.96 11.321,14.763 10.378,5.913 21.139,1.257 22.054,0.843 2.239,-1.014 8.562,-4.269 11.711,-11.173 1.983,-4.348 1.956,-8.495 1.919,-14.124 -0.023,-3.595 -0.039,-6.104 -0.871,-9.128 -0.532,-1.938 -2.994,-9.913 -10.812,-14.602 -8.287,-4.969 -19.15,-4.117 -26.628,1.178 -1.905,1.349 -6.556,5.079 -8.565,11.278 z" /></g><g
           transform="translate(351.1384,327.1148)"
           id="g132"><path
             id="path134"
             style="fill:#383332;fill-opacity:1;fill-rule:nonzero;stroke:none"
             d="m 0,0 c 2.083,3.442 4.166,6.883 6.249,10.325 -2.104,1.121 -7.75,3.77 -15.215,2.989 -2.495,-0.261 -9.438,-1.35 -15.352,-7.065 -7.167,-6.925 -7.744,-15.736 -7.88,-18.476 -0.154,-3.109 -0.598,-12.279 6.188,-19.348 7.117,-7.415 17.08,-6.966 19.482,-6.857 8.434,0.381 14.287,4.53 16.445,6.234 -1.902,3.034 -3.804,6.069 -5.705,9.103 -5.887,-4.076 -13.127,-4.177 -17.662,-0.544 -4.633,3.713 -4.621,9.865 -4.619,11.276 0.002,1.107 0.019,9.854 6.718,13.037 C -6.123,3.158 -0.739,0.394 0,0" /></g><g
           transform="translate(351.1384,327.1148)"
           id="g136"><path
             id="path138"
             style="fill:none;stroke:#383332;stroke-width:0.5;stroke-linecap:butt;stroke-linejoin:miter;stroke-miterlimit:10;stroke-dasharray:none;stroke-opacity:1"
             d="m 0,0 c 2.083,3.442 4.166,6.883 6.249,10.325 -2.104,1.121 -7.75,3.77 -15.215,2.989 -2.495,-0.261 -9.438,-1.35 -15.352,-7.065 -7.167,-6.925 -7.744,-15.736 -7.88,-18.476 -0.154,-3.109 -0.598,-12.279 6.188,-19.348 7.117,-7.415 17.08,-6.966 19.482,-6.857 8.434,0.381 14.287,4.53 16.445,6.234 -1.902,3.034 -3.804,6.069 -5.705,9.103 -5.887,-4.076 -13.127,-4.177 -17.662,-0.544 -4.633,3.713 -4.621,9.865 -4.619,11.276 0.002,1.107 0.019,9.854 6.718,13.037 C -6.123,3.158 -0.739,0.394 0,0 Z" /></g><g
           transform="translate(305.645,327.1148)"
           id="g140"><path
             id="path142"
             style="fill:#383332;fill-opacity:1;fill-rule:nonzero;stroke:none"
             d="m 0,0 c 2.083,3.442 4.166,6.883 6.249,10.325 -2.104,1.121 -7.75,3.77 -15.215,2.989 -2.495,-0.261 -9.438,-1.35 -15.352,-7.065 -7.167,-6.925 -7.744,-15.736 -7.88,-18.476 -0.154,-3.109 -0.598,-12.279 6.188,-19.348 7.117,-7.415 17.08,-6.966 19.482,-6.857 8.434,0.381 14.287,4.53 16.445,6.234 -1.902,3.034 -3.804,6.069 -5.705,9.103 -5.887,-4.076 -13.127,-4.177 -17.662,-0.544 -4.633,3.713 -4.621,9.865 -4.619,11.276 0.002,1.107 0.019,9.854 6.718,13.037 C -6.123,3.158 -0.739,0.394 0,0" /></g><g
           transform="translate(305.645,327.1148)"
           id="g144"><path
             id="path146"
             style="fill:none;stroke:#383332;stroke-width:0.5;stroke-linecap:butt;stroke-linejoin:miter;stroke-miterlimit:10;stroke-dasharray:none;stroke-opacity:1"
             d="m 0,0 c 2.083,3.442 4.166,6.883 6.249,10.325 -2.104,1.121 -7.75,3.77 -15.215,2.989 -2.495,-0.261 -9.438,-1.35 -15.352,-7.065 -7.167,-6.925 -7.744,-15.736 -7.88,-18.476 -0.154,-3.109 -0.598,-12.279 6.188,-19.348 7.117,-7.415 17.08,-6.966 19.482,-6.857 8.434,0.381 14.287,4.53 16.445,6.234 -1.902,3.034 -3.804,6.069 -5.705,9.103 -5.887,-4.076 -13.127,-4.177 -17.662,-0.544 -4.633,3.713 -4.621,9.865 -4.619,11.276 0.002,1.107 0.019,9.854 6.718,13.037 C -6.123,3.158 -0.739,0.394 0,0 Z" /></g><g
           transform="translate(245.4613,316.1106)"
           id="g148"><path
             id="path150"
             style="fill:#383332;fill-opacity:1;fill-rule:nonzero;stroke:none"
             d="M 0,0 C -1.902,6.883 -3.804,13.767 -5.706,20.65 H -9.102 C -10.959,13.767 -12.816,6.883 -14.672,0 Z m -37.496,-26.628 c 6.023,19.564 12.046,39.127 18.069,58.69 h -6.929 c 2.31,3.985 4.619,7.97 6.929,11.955 H 1.902 C 9.283,20.378 16.665,-3.26 24.046,-26.899 c -5.66,0.09 -11.321,0.181 -16.982,0.271 -1.72,4.846 -3.441,9.691 -5.162,14.537 h -19.02 c -1.766,-4.846 -3.532,-9.691 -5.298,-14.537 z" /></g><g
           transform="translate(245.4613,316.1106)"
           id="g152"><path
             id="path154"
             style="fill:none;stroke:#383332;stroke-width:0.5;stroke-linecap:butt;stroke-linejoin:miter;stroke-miterlimit:10;stroke-dasharray:none;stroke-opacity:1"
             d="M 0,0 C -1.902,6.883 -3.804,13.767 -5.706,20.65 H -9.102 C -10.959,13.767 -12.816,6.883 -14.672,0 Z m -37.496,-26.628 c 6.023,19.564 12.046,39.127 18.069,58.69 h -6.929 c 2.31,3.985 4.619,7.97 6.929,11.955 H 1.902 C 9.283,20.378 16.665,-3.26 24.046,-26.899 c -5.66,0.09 -11.321,0.181 -16.982,0.271 -1.72,4.846 -3.441,9.691 -5.162,14.537 h -19.02 c -1.766,-4.846 -3.532,-9.691 -5.298,-14.537 z" /></g></g></g></g></svg>